# xmcd
#
# Track frame offsets:
#	150
#	17225
#	29463
#	39208
#	48690
#	59815
#	82326
#	95533
#	111077
#	130310
#	138722
#	179852
#	197695
#	211376
#	236167
#
# Disc length: 3443 seconds
#
# Revision: 2
# Processed by: cddbd v1.5.1PL2 Copyright (c) Steve Scherf et al.
# Submitted via: audiograbber 1.83.01
#
DISCID=ed0d710f
DTITLE=Stiefelbein Bluhs Bänd - Gstiess und Mond
DYEAR=1997
DGENRE=Blues
TTITLE0=Faschingsgschnas In Da Lobau
TTITLE1=Moch An Reim
TTITLE2=Waun I No Amoe Auf'd Wöd Kum
TTITLE3=Unsa Heargod, Des Muass A Weana Sei
TTITLE4=Hundalliad
TTITLE5=Summa In Wean
TTITLE6=Sogta Dokta
TTITLE7=I Hob An Bankbeamt'n Biss'n
TTITLE8=Kana Kennt Di, Bist Eascht G'sund Am Saund
TTITLE9=S' Oede Haus Im Liebhartstoe
TTITLE10=Da Teife Kummt Noch Simmaring
TTITLE11=Da Lange, Schwoaze Schal
TTITLE12=Da Plumsta
TTITLE13=Gstiess und Mond
TTITLE14=Koarl Da Kutscha
EXTD=Georg Siegl g\nBilly Wotawa h\n
EXTT0=
EXTT1=
EXTT2=
EXTT3=
EXTT4=
EXTT5=
EXTT6=
EXTT7=
EXTT8=
EXTT9=
EXTT10=
EXTT11=
EXTT12=
EXTT13=
EXTT14=
PLAYORDER=
